#!OML:ASF E:\Steps\Project 1\Capture day 1\Session 2\Subject.ASF
:FULLY-SPECIFIED
:DEGREES
277
root 7.65329 16.2048 25.1329 -155.703 2.158 175.387
lowerback -24.3836 -1.8469 -9.00941
upperback 0.461409 0.742344 -1.57782
thorax 14.2553 -0.10413 3.65015
lowerneck -3.13235 -1.90725 -1.2502
upperneck 16.1706 -3.82143 2.83065
head 5.45897 -2.09581 0.842647
rclavicle -4.07509e-015 9.14409e-015
rhumerus -36.0666 -16.0446 -77.7251
rradius 36.8754
rwrist -5.73296
rhand -8.90456 -51.6968
rfingers 7.12502
rthumb 17.0383 -80.9696
lclavicle -4.07509e-015 9.14409e-015
lhumerus -27.9911 9.18564 78.5964
lradius 19.309
lwrist -9.15735
lhand -19.8685 -13.2454
lfingers 7.12502
lthumb 6.46672 16.6359
rfemur -43.6698 -2.93479 18.6657
rtibia 66.8907
rfoot -13.2949 -8.52199
rtoes -34.2947
lfemur -29.0059 -7.6939 -25.594
ltibia 13.3598
lfoot -7.14739 -3.45385
ltoes -25.536
278
root 7.64404 16.2116 25.0554 -155.671 2.07523 175.611
lowerback -24.4193 -1.81686 -8.69208
upperback 0.512756 0.67049 -1.49392
thorax 14.3444 -0.12876 3.53925
lowerneck -3.26036 -1.87157 -1.3391
upperneck 16.322 -3.80426 2.97899
head 5.53185 -2.08456 0.90141
rclavicle 3.67752e-015 -4.33351e-014
rhumerus -36.1511 -16.4201 -77.4696
rradius 36.4569
rwrist -5.45072
rhand -8.43858 -51.5557
rfingers 7.12502
rthumb 17.4868 -80.7892
lclavicle 3.67752e-015 -4.33351e-014
lhumerus -27.3587 8.8542 78.8352
lradius 19.3887
lwrist -8.84587
lhand -19.8654 -12.8062
lfingers 7.12502
lthumb 6.4698 17.075
rfemur -44.7476 -2.62417 18.7314
rtibia 65.8758
rfoot -13.6392 -9.04796
rtoes -38.0636
lfemur -28.6149 -7.79318 -25.3789
ltibia 13.1656
lfoot -7.59606 -3.2901
ltoes -25.0972
279
root 7.63344 16.2147 24.9822 -155.403 2.1078 175.931
lowerback -24.5676 -1.73757 -8.20562
upperback 0.416399 0.637238 -1.43973
thorax 14.3164 -0.106423 3.31464
lowerneck -3.15071 -2.94339 -1.27315
upperneck 16.3761 -3.52003 2.8397
head 5.52268 -1.27929 0.929514
rclavicle -1.98785e-015 3.49861e-014
rhumerus -36.5367 -16.4371 -77.3078
rradius 36.2972
rwrist -5.4995
rhand -8.16654 -51.7088
rfingers 7.12502
rthumb 17.7486 -80.9188
lclavicle -1.98785e-015 3.49861e-014
lhumerus -26.9266 8.39642 79.0031
lradius 19.5951
lwrist -8.37517
lhand -19.7513 -13.1243
lfingers 7.12502
lthumb 6.5799 16.7535
rfemur -46.1189 -2.19298 18.872
rtibia 66.0042
rfoot -15.4201 -8.80623
rtoes -37.7658
lfemur -28.6193 -7.74843 -25.0763
ltibia 13.1641
lfoot -7.77696 -3.17255
ltoes -26.7518
280
root 7.63066 16.2239 24.9044 -155.54 1.89186 175.999
lowerback -24.2836 -1.7975 -8.07094
upperback 0.428295 0.466856 -1.36545
thorax 14.1877 -0.176968 3.25982
lowerneck -3.04619 -2.9277 -1.22651
upperneck 16.3714 -3.48876 2.78462
head 5.50082 -1.26372 0.907876
rclavicle 2.98177e-016 -1.70955e-014
rhumerus -36.9874 -16.4067 -77.0697
rradius 36.1582
rwrist -5.46753
rhand -8.04869 -51.3665
rfingers 7.12502
rthumb 17.862 -80.5662
lclavicle 2.98177e-016 -1.70955e-014
lhumerus -26.6501 8.12608 79.1334
lradius 19.9504
lwrist -8.19935
lhand -19.5523 -13.5228
lfingers 7.12502
lthumb 6.77202 16.3489
rfemur -46.8006 -2.01235 18.7762
rtibia 65.3066
rfoot -15.6484 -9.61217
rtoes -37.3632
lfemur -28.1417 -7.79582 -25.0384
ltibia 13.1429
lfoot -7.86441 -3.2955
ltoes -27.942
281
root 7.62556 16.23 24.8311 -155.642 1.80484 176.04
lowerback -24.0377 -1.85105 -8.00993
upperback 0.474246 0.322322 -1.24957
thorax 14.1175 -0.248716 3.30442
lowerneck -3.33311 -2.90434 -1.25451
upperneck 16.8225 -3.4195 2.67191
head 5.68808 -1.22178 0.878428
rclavicle 2.08724e-015 3.18055e-015
rhumerus -37.1939 -16.5035 -76.7421
rradius 35.8425
rwrist -5.24427
rhand -7.78849 -50.5861
rfingers 7.12502
rthumb 18.1123 -79.7628
lclavicle 2.08724e-015 3.18055e-015
lhumerus -26.3457 7.9281 79.4125
lradius 20.3933
lwrist -8.02819
lhand -19.5746 -13.7699
lfingers 7.12502
lthumb 6.75046 16.1025
rfemur -47.6307 -1.7066 18.5648
rtibia 64.5244
rfoot -16.9483 -9.05428
rtoes -37.1595
lfemur -27.6855 -8.0213 -24.9999
ltibia 13.068
lfoot -8.06553 -3.10037
ltoes -27.8125
282
root 7.60718 16.2141 24.7103 -155.667 1.8501 176.283
lowerback -24.6451 -1.77353 -7.54121
upperback 0.673534 0.329484 -1.1612
thorax 14.6977 -0.249828 3.13948
lowerneck -3.23572 -2.93345 -1.21708
upperneck 16.3734 -3.48424 2.58403
head 5.53022 -1.28014 0.840885
rclavicle -4.07509e-015 6.75868e-015
rhumerus -37.5425 -16.2598 -76.505
rradius 35.8217
rwrist -5.17315
rhand -8.1674 -50.3894
rfingers 7.12502
rthumb 17.7478 -79.5995
lclavicle -4.07509e-015 6.75868e-015
lhumerus -25.9063 7.54358 79.771
lradius 20.779
lwrist -7.61059
lhand -19.7162 -13.9446
lfingers 7.12502
lthumb 6.61375 15.9321
rfemur -48.0772 -1.46817 18.4873
rtibia 63.1619
rfoot -17.3393 -9.43506
rtoes -36.4755
lfemur -26.7466 -8.3878 -24.933
ltibia 12.468
lfoot -8.49739 -2.62528
ltoes -27.9625
283
root 7.60807 16.2159 24.6364 -155.64 1.53497 176.32
lowerback -24.5126 -1.89515 -7.51983
upperback 0.691566 0.125269 -1.04983
thorax 14.6655 -0.348365 3.18035
lowerneck -3.12701 -2.84547 -1.05762
upperneck 16.2878 -3.35266 2.41676
head 5.47659 -1.22003 0.771315
rclavicle -4.96962e-016 8.74653e-015
rhumerus -37.9454 -16.0213 -76.2762
rradius 35.7428
rwrist -4.9514
rhand -8.9214 -50.548
rfingers 7.12502
rthumb 17.0221 -79.8222
lclavicle -4.96962e-016 8.74653e-015
lhumerus -25.5095 7.00731 80.0697
lradius 21.1612
lwrist -7.06854
lhand -19.7872 -13.9281
lfingers 7.12502
lthumb 6.54529 15.9508
rfemur -48.7802 -1.44493 18.3693
rtibia 61.7561
rfoot -17.5663 -10.2083
rtoes -36.7085
lfemur -26.5489 -8.64095 -24.8178
ltibia 12.6022
lfoot -9.04149 -2.6476
ltoes -28.1178
284
root 7.62378 16.2395 24.5959 -155.86 1.11235 176.284
lowerback -23.5896 -2.07984 -7.76297
upperback 0.668349 -0.178659 -0.911153
thorax 14.1475 -0.498458 3.36947
lowerneck -3.00471 -2.91308 -1.17245
upperneck 16.1784 -3.46758 2.6208
head 5.42938 -1.27315 0.848857
rclavicle -1.59028e-015 -1.47101e-014
rhumerus -37.7586 -16.7323 -75.9614
rradius 34.8722
rwrist -3.96928
rhand -9.31628 -50.6349
rfingers 7.12502
rthumb 16.642 -79.9415
lclavicle -1.59028e-015 -1.47101e-014
lhumerus -25.1519 6.46786 80.3043
lradius 21.5721
lwrist -6.5124
lhand -19.9975 -13.5342
lfingers 7.12502
lthumb 6.34228 16.3509
rfemur -49.3476 -1.29806 18.2334
rtibia 60.3967
rfoot -17.7964 -11.2141
rtoes -37.4832
lfemur -26.4483 -8.47997 -24.7178
ltibia 13.0683
lfoot -9.34931 -3.17554
ltoes -27.9831
285
root 7.61911 16.2278 24.4922 -155.838 1.0449 176.443
lowerback -23.9493 -2.09162 -7.49594
upperback 0.797025 -0.250508 -0.838754
thorax 14.5115 -0.535464 3.27132
lowerneck -3.14669 -2.88225 -1.33261
upperneck 16.2147 -3.45582 2.8827
head 5.47203 -1.25977 0.95585
rclavicle 8.15017e-015 -6.75868e-015
rhumerus -38.6786 -15.9918 -75.7957
rradius 35.4105
rwrist -4.54384
rhand -9.63241 -51.2871
rfingers 7.12502
rthumb 16.3376 -80.619
lclavicle 8.15017e-015 -6.75868e-015
lhumerus -24.7472 5.89467 80.563
lradius 22.0628
lwrist -5.86992
lhand -20.145 -12.8827
lfingers 7.12502
lthumb 6.19979 17.0066
rfemur -49.7931 -1.06664 18.0615
rtibia 58.6201
rfoot -18.1451 -11.6098
rtoes -36.921
lfemur -25.8529 -8.63139 -24.6448
ltibia 12.7771
lfoot -9.574 -3.14495
ltoes -27.4163
286
root 7.62594 16.2289 24.4104 -155.962 0.805238 176.546
lowerback -23.6848 -2.2081 -7.47788
upperback 0.850023 -0.470014 -0.690215
thorax 14.449 -0.646443 3.35268
lowerneck -3.23554 -2.8125 -1.35294
upperneck 16.2499 -3.36742 2.92055
head 5.49715 -1.21519 0.97504
rclavicle -3.42904e-015 -2.42517e-014
rhumerus -38.7072 -16.1893 -75.5771
rradius 34.9246
rwrist -4.07667
rhand -9.84021 -51.6772
rfingers 7.12502
rthumb 16.1375 -81.0254
lclavicle -3.42904e-015 -2.42517e-014
lhumerus -24.507 5.22242 80.8698
lradius 22.7383
lwrist -5.13834
lhand -20.0784 -12.5366
lfingers 7.12502
lthumb 6.26415 17.3508
rfemur -50.0686 -0.815964 17.82
rtibia 56.6231
rfoot -18.3099 -11.9596
rtoes -35.1509
lfemur -25.3848 -8.81065 -24.4838
ltibia 12.7529
lfoot -9.79672 -3.17313
ltoes -26.8618
287
root 7.62681 16.2306 24.3353 -156.022 0.523335 176.744
lowerback -23.4115 -2.00739 -7.38054
upperback 0.845928 -0.738409 -0.536614
thorax 14.2941 -0.951288 3.33364
lowerneck -3.16817 -2.778 -1.24926
upperneck 16.2774 -3.30756 2.81553
head 5.48931 -1.18452 0.929546
rclavicle -2.5345e-015 1.96797e-014
rhumerus -38.6979 -16.6224 -75.2713
rradius 34.2878
rwrist -3.42829
rhand -9.70384 -51.4928
rfingers 7.12502
rthumb 16.2688 -80.8303
lclavicle -2.5345e-015 1.96797e-014
lhumerus -24.4279 4.21291 81.2152
lradius 23.5499
lwrist -4.30811
lhand -20.1142 -12.3481
lfingers 7.12502
lthumb 6.22955 17.5403
rfemur -50.3147 -0.603006 17.6829
rtibia 54.5036
rfoot -18.2466 -12.332
rtoes -34.663
lfemur -25.0428 -8.97997 -24.2275
ltibia 12.7616
lfoot -9.9941 -3.16092
ltoes -26.0737
